<svg width="402" height="129" viewBox="0 0 402 129" fill="none" xmlns="http://www.w3.org/2000/svg">
<path d="M374.136 18.8646L374.125 29.2474C374.329 29.2811 374.538 29.3391 374.749 29.4219C377.173 30.3719 379.677 30.9117 382.177 31.1135L385.06 27.1015L387.87 31.0132C390.314 30.7391 392.689 30.183 394.907 29.4135C395.156 29.327 395.396 29.2687 395.625 29.2408L395.726 18.8647L390.691 25.2099L388.428 18.8648L384.86 25.7538L381.293 18.8648L378.939 25.2099L374.137 18.8648H374.136L374.136 18.8646ZM385.06 29.2286L383.158 31.8756L385.06 34.5226L386.961 31.8756L385.06 29.2286ZM373.762 30.4545C373.617 30.4492 373.507 30.4727 373.429 30.5051C373.273 30.57 373.218 30.6505 373.197 30.7837C373.154 31.05 373.384 31.7367 374.726 32.2022C377.495 33.163 380.321 33.7792 383.145 33.9841L381.966 32.3436C379.391 32.1254 376.807 31.5616 374.296 30.5774C374.084 30.4942 373.906 30.4598 373.762 30.4545ZM395.893 30.4671C395.75 30.4706 395.558 30.5011 395.314 30.586C393.083 31.3596 390.699 31.9284 388.24 32.2226L386.96 34.0035C389.645 33.8307 392.302 33.254 394.877 32.2132C395.934 31.7862 396.303 31.0305 396.296 30.7282C396.292 30.5771 396.277 30.5578 396.179 30.5108C396.13 30.4874 396.036 30.4637 395.893 30.4671ZM394.69 33.6173C391.868 34.6712 388.962 35.2015 386.04 35.2852L385.06 36.6497L384.072 35.2744C381.084 35.1585 378.096 34.5951 375.18 33.6603C374.331 35.5536 373.922 37.7204 373.878 39.8653C376.369 41.0272 378.004 42.5094 378.895 44.1572C379.754 45.7445 379.905 47.4592 379.567 49.0768C380.08 49.4093 380.638 49.684 381.226 49.9024L381.595 46.7222L382.827 46.8652L382.433 50.2623C383.069 50.4091 383.724 50.4967 384.384 50.5267V46.8963H385.625V50.5148C386.283 50.4724 386.934 50.3735 387.561 50.217L387.172 46.8652L388.405 46.7221L388.766 49.8334C389.347 49.6061 389.895 49.3258 390.394 48.9907C390.011 47.3695 390.143 45.6926 390.992 44.1438C391.874 42.5345 393.497 41.0891 395.959 39.8746C395.918 37.6482 395.515 35.4837 394.69 33.6171V33.6173ZM376.977 36.7388C379.275 36.7541 381.52 37.5513 383.708 39.187C380.613 41.3882 375.089 41.4695 376.517 36.7462C376.671 36.7403 376.824 36.7378 376.977 36.7389L376.977 36.7388ZM393.102 36.7388C393.256 36.7378 393.409 36.7402 393.563 36.7461C394.991 41.4694 389.466 41.3881 386.372 39.187C388.56 37.5514 390.805 36.7541 393.102 36.7389V36.7388ZM384.945 40.0562C385.726 41.4989 386.219 42.9417 386.629 44.3844H383.26C383.563 42.9417 384.174 41.4991 384.945 40.0561V40.0562Z" fill="white"/>
<path fill-rule="evenodd" clip-rule="evenodd" d="M46.4994 63.6297L44.584 80.8686C44.3086 83.3283 44.9078 85.8065 46.2767 87.8687C47.6455 89.9308 49.6966 91.4453 52.0703 92.1465C54.444 92.8478 56.9888 92.6911 59.2585 91.7039C61.5282 90.7166 63.378 88.962 64.4834 86.7474L66.1429 83.4286H79.8572L81.5166 86.7474C82.6221 88.962 84.4718 90.7166 86.7415 91.7039C89.0113 92.6911 91.556 92.8478 93.9297 92.1465C96.3034 91.4453 98.3545 89.9308 99.7234 87.8687C101.092 85.8065 101.691 83.3283 101.416 80.8686L99.496 63.6297C99.1238 60.2764 97.5285 57.178 95.0152 54.927C92.5019 52.676 89.2471 51.4305 85.8732 51.4286L60.136 51.4286C56.7605 51.4282 53.5034 52.6728 50.9883 54.9239C48.4731 57.1751 46.8764 60.2748 46.504 63.6297H46.4994ZM61 60C62.5772 60 63.8572 61.28 63.8572 62.8572V65.3349H66.3349C67.0926 65.3349 67.8194 65.6359 68.3552 66.1717C68.891 66.7075 69.192 67.4343 69.192 68.192C69.192 68.9498 68.891 69.6765 68.3552 70.2123C67.8194 70.7481 67.0926 71.0492 66.3349 71.0492H63.8572V73.5223C63.8572 74.2801 63.5561 75.0068 63.0203 75.5426C62.4845 76.0784 61.7578 76.3794 61 76.3794C60.2423 76.3794 59.5155 76.0784 58.9797 75.5426C58.4439 75.0068 58.1429 74.2801 58.1429 73.5223V71.0492H55.6652C54.9074 71.0492 54.1807 70.7481 53.6449 70.2123C53.109 69.6765 52.808 68.9498 52.808 68.192C52.808 67.4343 53.109 66.7075 53.6449 66.1717C54.1807 65.6359 54.9074 65.3349 55.6652 65.3349H58.1429V62.8572C58.1429 61.28 59.4229 60 61 60ZM83.3543 73.9063C84.1121 73.9063 84.8388 73.6053 85.3746 73.0695C85.9104 72.5336 86.2114 71.8069 86.2114 71.0492C86.2114 70.2914 85.9104 69.5647 85.3746 69.0289C84.8388 68.493 84.1121 68.192 83.3543 68.192C82.5965 68.192 81.8698 68.493 81.334 69.0289C80.7982 69.5647 80.4972 70.2914 80.4972 71.0492C80.4972 71.8069 80.7982 72.5336 81.334 73.0695C81.8698 73.6053 82.5965 73.9063 83.3543 73.9063ZM91.9303 63.9634C91.9303 64.7212 91.6293 65.4479 91.0935 65.9838C90.5577 66.5196 89.8309 66.8206 89.0732 66.8206C88.3154 66.8206 87.5887 66.5196 87.0529 65.9838C86.517 65.4479 86.216 64.7212 86.216 63.9634C86.216 63.2057 86.517 62.479 87.0529 61.9431C87.5887 61.4073 88.3154 61.1063 89.0732 61.1063C89.8309 61.1063 90.5577 61.4073 91.0935 61.9431C91.6293 62.479 91.9303 63.2057 91.9303 63.9634Z" fill="white"/>
<path d="M103.562 62.4375C103.438 60.8125 103.281 59.1875 103.094 57.5625C102.969 55.875 102.75 54.2188 102.438 52.5938C102.438 51.2188 102.875 50.3438 103.75 49.9688C104.688 49.5938 105.688 49.4062 106.75 49.4062H108.625C109.562 49.8438 110.219 50.375 110.594 51C110.969 51.625 111.219 52.3125 111.344 53.0625C111.469 53.8125 111.5 54.5938 111.438 55.4062C111.438 56.2188 111.469 57 111.531 57.75C111.594 58.0625 111.625 58.5938 111.625 59.3438C111.625 60.0938 111.625 60.875 111.625 61.6875C111.688 62.5 111.75 63.25 111.812 63.9375C111.938 64.625 112.094 65.0625 112.281 65.25L120.531 49.7812C120.906 49.0938 121.438 48.5312 122.125 48.0938C122.875 47.5938 123.688 47.4062 124.562 47.5312C125.938 47.6562 126.969 47.9375 127.656 48.375C128.344 48.75 128.812 49.2812 129.062 49.9688C129.375 50.5938 129.531 51.375 129.531 52.3125C129.594 53.25 129.656 54.2812 129.719 55.4062C129.719 55.7812 129.75 56.5 129.812 57.5625C129.875 58.5625 129.938 59.625 130 60.75C130.125 61.875 130.219 62.9375 130.281 63.9375C130.406 64.9375 130.5 65.625 130.562 66H130.938C131.062 65.5625 131.281 64.7188 131.594 63.4688C131.969 62.2188 132.375 60.9062 132.812 59.5312C133.25 58.1562 133.656 56.8438 134.031 55.5938C134.406 54.3438 134.688 53.4688 134.875 52.9688C134.938 52.8438 135.062 52.5938 135.25 52.2188C135.438 51.7812 135.625 51.3438 135.812 50.9062C136 50.4062 136.188 49.9688 136.375 49.5938C136.562 49.1562 136.688 48.8438 136.75 48.6562C137.188 47.9688 137.625 47.625 138.062 47.625C138.562 47.5625 139.094 47.5312 139.656 47.5312C141.219 47.5312 142.406 47.9375 143.219 48.75C144.094 49.5 144.719 50.4688 145.094 51.6562C145.531 52.8438 145.844 54.1562 146.031 55.5938C146.219 56.9688 146.438 58.25 146.688 59.4375C146.75 59.4375 146.781 59.5 146.781 59.625C146.781 59.6875 146.75 59.75 146.688 59.8125L151.844 87.0938C152.094 87.3438 152.219 87.5625 152.219 87.75C152.281 87.9375 152.312 88.1875 152.312 88.5C152.312 89.1875 151.969 89.875 151.281 90.5625C150.656 91.1875 150 91.5 149.312 91.5C148.375 91.5 147.281 91.1562 146.031 90.4688C144.844 89.7812 144.156 88.9062 143.969 87.8438L139.656 65.625L139.188 64.875C139.062 65.1875 138.781 66.0938 138.344 67.5938C137.969 69.0312 137.5 70.875 136.938 73.125C136.375 75.3125 135.719 77.7812 134.969 80.5312C134.281 83.2812 133.562 86.0938 132.812 88.9688C132.688 89.5312 132.312 89.9688 131.688 90.2812C131.125 90.5312 130.625 90.6562 130.188 90.6562C128.875 90.6562 127.812 90.5 127 90.1875C126.188 89.875 125.562 89.4062 125.125 88.7812C124.688 88.1562 124.375 87.4062 124.188 86.5312C124 85.6562 123.844 84.6562 123.719 83.5312C123.719 83.2812 123.656 82.4062 123.531 80.9062C123.406 79.3438 123.25 77.5938 123.062 75.6562C122.938 73.6562 122.781 71.6562 122.594 69.6562C122.406 67.6562 122.281 66.0625 122.219 64.875C122.219 64.625 122.219 64.4375 122.219 64.3125C122.219 64.1875 122.219 64.0938 122.219 64.0312C122.219 63.9062 122.188 63.7812 122.125 63.6562C122.062 63.4688 121.938 63.1875 121.75 62.8125L119.031 69.2812L114.719 85.125L113.781 90.9375C113.719 91.3125 113.531 91.6562 113.219 91.9688C112.969 92.2188 112.656 92.4375 112.281 92.625C111.906 92.75 111.531 92.8438 111.156 92.9062C110.781 92.9688 110.469 93 110.219 93C108.844 93 107.656 92.5 106.656 91.5C105.719 90.5 105.219 89.4062 105.156 88.2188C105.094 87.7812 105.031 86.9375 104.969 85.6875C104.906 84.375 104.812 82.8438 104.688 81.0938C104.562 79.3438 104.438 77.5 104.312 75.5625C104.25 73.625 104.156 71.7812 104.031 70.0312C103.906 68.2812 103.781 66.75 103.656 65.4375C103.594 64.125 103.562 63.25 103.562 62.8125V62.4375ZM195.812 66.375C195.688 67.5 195.531 68.375 195.344 69C195.219 69.625 194.969 70.1875 194.594 70.6875C194.219 71.1875 193.688 71.7188 193 72.2812C192.312 72.7812 191.375 73.5312 190.188 74.5312C189 75.4688 187.531 76.7188 185.781 78.2812C184.031 79.8438 181.906 81.875 179.406 84.375C178.406 85.3125 177.375 86.2812 176.312 87.2812C175.25 88.2812 174.125 89.1875 172.938 90C171.812 90.75 170.625 91.375 169.375 91.875C168.125 92.375 166.812 92.625 165.438 92.625C162.75 92.625 160.781 91.7188 159.531 89.9062C158.281 88.0938 157.656 86 157.656 83.625C157.656 82.0625 157.688 80.75 157.75 79.6875C157.875 78.625 158.125 77.25 158.5 75.5625C157.812 74.9375 157.219 74.4062 156.719 73.9688C156.219 73.4688 155.969 72.8125 155.969 72C155.969 71.25 156.125 70.75 156.438 70.5C156.812 70.25 157.219 70.0938 157.656 70.0312C158.156 69.9062 158.625 69.7812 159.062 69.6562C159.5 69.5312 159.812 69.2812 160 68.9062C160.125 68.5312 160.344 67.8438 160.656 66.8438C161.031 65.8438 161.406 64.8125 161.781 63.75C162.156 62.625 162.5 61.5938 162.812 60.6562C163.188 59.6562 163.438 58.9688 163.562 58.5938C164 57.5312 164.469 56.4688 164.969 55.4062C165.531 54.2812 166.156 53.2812 166.844 52.4062C167.594 51.5312 168.438 50.8125 169.375 50.25C170.375 49.6875 171.531 49.4062 172.844 49.4062C173.594 49.4062 174.5 49.75 175.562 50.4375C176.688 51.125 177.75 51.9688 178.75 52.9688C179.75 53.9062 180.594 54.9062 181.281 55.9688C181.969 57.0312 182.312 57.9375 182.312 58.6875C182.312 59.625 182.094 60.5 181.656 61.3125C181.219 62.0625 180.656 62.7812 179.969 63.4688C179.344 64.0938 178.656 64.6875 177.906 65.25C177.156 65.8125 176.469 66.3438 175.844 66.8438C175.781 66.8438 175.656 66.9062 175.469 67.0312C175.281 67.1562 175.125 67.25 175 67.3125C174.938 67.375 174.781 67.5312 174.531 67.7812C174.344 67.9688 174.125 68.1875 173.875 68.4375C173.625 68.6875 173.375 68.9375 173.125 69.1875C172.938 69.4375 172.812 69.5938 172.75 69.6562C172.562 69.8438 172.188 70.1562 171.625 70.5938C171.125 70.9688 170.562 71.4062 169.938 71.9062C169.312 72.3438 168.719 72.7812 168.156 73.2188C167.656 73.5938 167.312 73.8438 167.125 73.9688L166.75 74.7188C166.625 74.9688 166.5 75.5312 166.375 76.4062C166.312 77.2188 166.219 78.1562 166.094 79.2188C165.969 80.2812 165.844 81.375 165.719 82.5C165.656 83.5625 165.625 84.4375 165.625 85.125C165.625 85.1875 165.656 85.25 165.719 85.3125C165.844 85.4375 165.938 85.5 166 85.5C166.5 85.5 166.969 85.2812 167.406 84.8438C167.844 84.4062 168.312 84.0938 168.812 83.9062L183.812 70.0312L187.656 64.125C187.969 63.6875 188.562 63.2188 189.438 62.7188C190.375 62.1562 191.312 61.875 192.25 61.875C193.188 61.8125 194 62.0938 194.688 62.7188C195.438 63.3438 195.812 64.5625 195.812 66.375ZM175.188 59.0625C175.5 58.8125 175.625 58.4375 175.562 57.9375C175.5 57.4375 175.312 57 175 56.625C174.75 56.25 174.406 56.0312 173.969 55.9688C173.531 55.8438 173.125 56.0625 172.75 56.625C172.562 56.875 172.219 57.375 171.719 58.125C171.281 58.875 170.812 59.6562 170.312 60.4688C169.875 61.2188 169.5 61.875 169.188 62.4375C168.875 63 168.812 63.2188 169 63.0938L175.188 59.0625ZM208.469 68.9062H208.188C208.188 71.4688 208.219 74 208.281 76.5C208.406 78.9375 208.469 81.4688 208.469 84.0938C208.469 84.8438 208.438 85.5938 208.375 86.3438C208.375 87.0312 208.281 87.6875 208.094 88.3125C207.906 88.875 207.562 89.3438 207.062 89.7188C206.625 90.0312 205.938 90.1875 205 90.1875C203.25 90.1875 202.031 89.2812 201.344 87.4688C201.031 84.5312 200.844 81.6562 200.781 78.8438C200.719 75.9688 200.531 73.0312 200.219 70.0312C200.094 69.1562 199.719 68.3125 199.094 67.5C198.531 66.6875 198.25 65.9062 198.25 65.1562C198.25 64.5938 198.438 64.125 198.812 63.75C199.25 63.375 199.469 62.8438 199.469 62.1562C199.469 57.2812 199.312 52.4688 199 47.7188C198.75 42.9062 198.625 38.0938 198.625 33.2812V31.6875C199.062 31.0625 199.5 30.6875 199.938 30.5625C200.375 30.4375 200.969 30.375 201.719 30.375C203.531 30.375 204.688 30.9375 205.188 32.0625C205.688 33.125 205.969 34.4375 206.031 36L206.875 60.9375C206.938 61.125 207.031 61.4375 207.156 61.875C207.344 62.25 207.594 62.4375 207.906 62.4375C208.344 62.4375 209.156 62.3438 210.344 62.1562C211.531 61.9062 212.781 61.6562 214.094 61.4062C215.406 61.0938 216.594 60.7812 217.656 60.4688C218.719 60.0938 219.344 59.75 219.531 59.4375C219.531 59 219.531 58.2188 219.531 57.0938C219.594 55.9688 219.625 55.1875 219.625 54.75C219.625 52.125 219.594 49.5312 219.531 46.9688C219.469 44.4062 219.344 41.8125 219.156 39.1875C219.156 38.75 219.062 37.7188 218.875 36.0938C218.688 34.4062 218.5 32.5938 218.312 30.6562C218.125 28.7188 217.938 26.9375 217.75 25.3125C217.625 23.625 217.562 22.5625 217.562 22.125C217.5 22.0625 217.469 21.875 217.469 21.5625C217.469 21.1875 217.469 20.9375 217.469 20.8125C217.469 20 217.75 19.4062 218.312 19.0312C218.938 18.6562 219.594 18.4688 220.281 18.4688C221.781 18.4688 222.875 18.9375 223.562 19.875C224.312 20.8125 224.844 21.9688 225.156 23.3438C225.219 24.0313 225.312 25.1875 225.438 26.8125C225.562 28.4375 225.719 30.1875 225.906 32.0625C226.094 33.9375 226.25 35.7188 226.375 37.4062C226.562 39.0312 226.688 40.1562 226.75 40.7812V42.2812C226.75 42.5938 226.781 43.2188 226.844 44.1562C226.969 45.0312 227.062 45.625 227.125 45.9375V84.375C227.438 85.4375 227.625 86.3125 227.688 87C227.812 87.6875 227.875 88.5 227.875 89.4375C227.875 90.1875 227.656 91 227.219 91.875C226.844 92.6875 226.156 93.0938 225.156 93.0938C224.281 93.0938 223.469 92.875 222.719 92.4375C222.031 92 221.406 91.4375 220.844 90.75C220.344 90.0625 219.938 89.3125 219.625 88.5C219.312 87.625 219.156 86.75 219.156 85.875V66.5625L208.469 68.9062ZM254.594 66.8438C254.031 67.8438 253.375 69.0625 252.625 70.5C251.938 71.875 251.188 73.375 250.375 75C249.562 76.5625 248.656 78.1562 247.656 79.7812C246.719 81.3438 245.719 82.7812 244.656 84.0938C243.656 85.4062 242.594 86.5312 241.469 87.4688C240.344 88.3438 239.188 88.875 238 89.0625C237.5 89.0625 236.938 89.0312 236.312 88.9688C235.688 88.8438 235.062 88.6875 234.438 88.5C233.812 88.25 233.281 87.9375 232.844 87.5625C232.469 87.125 232.281 86.5625 232.281 85.875C232.344 79.5 232.812 73.7188 233.688 68.5312C234.562 63.2812 235.938 58.6875 237.812 54.75C239.688 50.75 242.094 47.4375 245.031 44.8125C247.969 42.1875 251.531 40.3125 255.719 39.1875C255.844 39.1875 256.062 39.1875 256.375 39.1875C256.75 39.125 257 39.0938 257.125 39.0938C259 39.0312 260.344 39.9062 261.156 41.7188C262.031 43.4688 262.656 46.2812 263.031 50.1562C263.469 53.9688 263.75 58.9062 263.875 64.9688C264.062 70.9688 264.406 78.1875 264.906 86.625C265.094 87.3125 265.188 87.9062 265.188 88.4062C265.25 88.9062 265.281 89.5 265.281 90.1875C265.281 91.125 265 91.8438 264.438 92.3438C263.875 92.7812 263.156 93 262.281 93C260.469 93 259.188 92.5 258.438 91.5C257.688 90.5 257.188 89.1562 256.938 87.4688C256.938 87.4062 256.875 86.9062 256.75 85.9688C256.688 85.0312 256.562 83.9688 256.375 82.7812C256.25 81.5312 256.125 80.2812 256 79.0312C255.875 77.7812 255.781 76.75 255.719 75.9375V75.5625C255.594 74.9375 255.5 74.1562 255.438 73.2188C255.438 72.2812 255.375 71.375 255.25 70.5C255.125 69.4375 255.031 68.375 254.969 67.3125L254.594 66.8438ZM252.531 48.2812C250.844 49.5312 249.188 51.2188 247.562 53.3438C245.938 55.4688 244.781 57.5312 244.094 59.5312C243.781 60.4688 243.438 61.75 243.062 63.375C242.688 65 242.344 66.625 242.031 68.25C241.781 69.8125 241.562 71.2812 241.375 72.6562C241.188 73.9688 241.094 74.8125 241.094 75.1875C241.156 75.1875 241.219 75.125 241.281 75C241.406 74.875 241.5 74.7812 241.562 74.7188C245.438 70.9688 248.156 66.9375 249.719 62.625C251.344 58.25 252.281 53.4688 252.531 48.2812ZM279.906 79.5938L269.594 54.5625C269.531 54.5 269.5 54.4375 269.5 54.375V54C269.5 53.4375 269.656 52.9688 269.969 52.5938C270.344 52.1562 270.781 51.7812 271.281 51.4688C271.406 51.4688 271.656 51.4688 272.031 51.4688C272.406 51.4062 272.656 51.375 272.781 51.375C273.969 51.375 274.812 51.5625 275.312 51.9375C275.875 52.3125 276.594 52.8125 277.469 53.4375C277.719 54.375 278.031 55.3438 278.406 56.3438C278.844 57.3438 279.344 58.625 279.906 60.1875C280.531 61.6875 281.312 63.5938 282.25 65.9062C283.188 68.2188 284.375 71.1562 285.812 74.7188L286.281 75.1875C286.469 74.875 286.625 74.4688 286.75 73.9688C286.938 73.4688 287.219 72.5938 287.594 71.3438C288.031 70.0938 288.625 68.2812 289.375 65.9062C290.125 63.5312 291.188 60.3125 292.562 56.25C293.062 55.4375 293.406 54.5 293.594 53.4375C293.781 52.375 294 51.375 294.25 50.4375C294.5 49.5 294.875 48.7188 295.375 48.0938C295.938 47.4688 296.781 47.1562 297.906 47.1562C298.969 47.1562 300 47.5938 301 48.4688C302 49.2812 302.5 50.2812 302.5 51.4688C302.5 52.0312 302.312 52.6562 301.938 53.3438C301.562 53.9688 301.188 54.5 300.812 54.9375L289.375 93H288.812C288.562 93 288.188 92.9688 287.688 92.9062C287.25 92.8438 286.781 92.75 286.281 92.625C285.781 92.4375 285.344 92.25 284.969 92.0625C284.594 91.875 284.375 91.6562 284.312 91.4062L279.906 79.9688V79.5938ZM345.719 66.375C345.594 67.5 345.438 68.375 345.25 69C345.125 69.625 344.875 70.1875 344.5 70.6875C344.125 71.1875 343.594 71.7188 342.906 72.2812C342.219 72.7812 341.281 73.5312 340.094 74.5312C338.906 75.4688 337.438 76.7188 335.688 78.2812C333.938 79.8438 331.812 81.875 329.312 84.375C328.312 85.3125 327.281 86.2812 326.219 87.2812C325.156 88.2812 324.031 89.1875 322.844 90C321.719 90.75 320.531 91.375 319.281 91.875C318.031 92.375 316.719 92.625 315.344 92.625C312.656 92.625 310.688 91.7188 309.438 89.9062C308.188 88.0938 307.562 86 307.562 83.625C307.562 82.0625 307.594 80.75 307.656 79.6875C307.781 78.625 308.031 77.25 308.406 75.5625C307.719 74.9375 307.125 74.4062 306.625 73.9688C306.125 73.4688 305.875 72.8125 305.875 72C305.875 71.25 306.031 70.75 306.344 70.5C306.719 70.25 307.125 70.0938 307.562 70.0312C308.062 69.9062 308.531 69.7812 308.969 69.6562C309.406 69.5312 309.719 69.2812 309.906 68.9062C310.031 68.5312 310.25 67.8438 310.562 66.8438C310.938 65.8438 311.312 64.8125 311.688 63.75C312.062 62.625 312.406 61.5938 312.719 60.6562C313.094 59.6562 313.344 58.9688 313.469 58.5938C313.906 57.5312 314.375 56.4688 314.875 55.4062C315.438 54.2812 316.062 53.2812 316.75 52.4062C317.5 51.5312 318.344 50.8125 319.281 50.25C320.281 49.6875 321.438 49.4062 322.75 49.4062C323.5 49.4062 324.406 49.75 325.469 50.4375C326.594 51.125 327.656 51.9688 328.656 52.9688C329.656 53.9062 330.5 54.9062 331.188 55.9688C331.875 57.0312 332.219 57.9375 332.219 58.6875C332.219 59.625 332 60.5 331.562 61.3125C331.125 62.0625 330.562 62.7812 329.875 63.4688C329.25 64.0938 328.562 64.6875 327.812 65.25C327.062 65.8125 326.375 66.3438 325.75 66.8438C325.688 66.8438 325.562 66.9062 325.375 67.0312C325.188 67.1562 325.031 67.25 324.906 67.3125C324.844 67.375 324.688 67.5312 324.438 67.7812C324.25 67.9688 324.031 68.1875 323.781 68.4375C323.531 68.6875 323.281 68.9375 323.031 69.1875C322.844 69.4375 322.719 69.5938 322.656 69.6562C322.469 69.8438 322.094 70.1562 321.531 70.5938C321.031 70.9688 320.469 71.4062 319.844 71.9062C319.219 72.3438 318.625 72.7812 318.062 73.2188C317.562 73.5938 317.219 73.8438 317.031 73.9688L316.656 74.7188C316.531 74.9688 316.406 75.5312 316.281 76.4062C316.219 77.2188 316.125 78.1562 316 79.2188C315.875 80.2812 315.75 81.375 315.625 82.5C315.562 83.5625 315.531 84.4375 315.531 85.125C315.531 85.1875 315.562 85.25 315.625 85.3125C315.75 85.4375 315.844 85.5 315.906 85.5C316.406 85.5 316.875 85.2812 317.312 84.8438C317.75 84.4062 318.219 84.0938 318.719 83.9062L333.719 70.0312L337.562 64.125C337.875 63.6875 338.469 63.2188 339.344 62.7188C340.281 62.1562 341.219 61.875 342.156 61.875C343.094 61.8125 343.906 62.0938 344.594 62.7188C345.344 63.3438 345.719 64.5625 345.719 66.375ZM325.094 59.0625C325.406 58.8125 325.531 58.4375 325.469 57.9375C325.406 57.4375 325.219 57 324.906 56.625C324.656 56.25 324.312 56.0312 323.875 55.9688C323.438 55.8438 323.031 56.0625 322.656 56.625C322.469 56.875 322.125 57.375 321.625 58.125C321.188 58.875 320.719 59.6562 320.219 60.4688C319.781 61.2188 319.406 61.875 319.094 62.4375C318.781 63 318.719 63.2188 318.906 63.0938L325.094 59.0625ZM374.969 89.8125C374.094 88.5625 373.344 86.8438 372.719 84.6562C372.156 82.4062 371.594 80.0625 371.031 77.625C370.531 75.125 370.062 72.7188 369.625 70.4062C369.188 68.0312 368.719 66.1562 368.219 64.7812C367.781 63.3438 367.281 62.5312 366.719 62.3438C366.156 62.1562 365.5 63 364.75 64.875L356.594 90C356.281 90.875 355.906 91.5 355.469 91.875C355.031 92.1875 354.312 92.3438 353.312 92.3438C352.812 92.3438 352.281 92.2812 351.719 92.1562C351.156 91.9688 350.625 91.7188 350.125 91.4062C349.625 91.0938 349.188 90.7188 348.812 90.2812C348.5 89.8438 348.312 89.3438 348.25 88.7812C348.438 88.0312 348.594 86.6562 348.719 84.6562C348.906 82.6562 349.031 80.3438 349.094 77.7188C349.156 75.0938 349.188 72.3438 349.188 69.4688C349.25 66.5312 349.25 63.8125 349.188 61.3125C349.188 58.75 349.156 56.5625 349.094 54.75C349.031 52.875 348.969 51.6562 348.906 51.0938C348.906 50.4688 348.906 49.8438 348.906 49.2188C348.969 48.5312 349.062 47.9062 349.188 47.3438C349.375 46.7812 349.656 46.3438 350.031 46.0312C350.469 45.6562 351.125 45.4688 352 45.4688C353.188 45.4688 354.281 45.9688 355.281 46.9688C356.344 47.9688 356.875 49.0312 356.875 50.1562C356.875 51.7812 356.781 53.4062 356.594 55.0312C356.469 56.5938 356.406 58.1875 356.406 59.8125C356.406 60.8125 356.406 61.6562 356.406 62.3438C356.406 63.0312 356.531 63.875 356.781 64.875C356.969 64.375 357.281 63.5 357.719 62.25C358.156 61 358.625 59.6875 359.125 58.3125C359.688 56.9375 360.188 55.6562 360.625 54.4688C361.062 53.2188 361.375 52.3438 361.562 51.8438C362 50.5938 362.656 49.4062 363.531 48.2812C364.406 47.0938 365.562 46.4375 367 46.3125C367.938 46.25 368.781 46.5 369.531 47.0625C370.344 47.625 371.031 48.375 371.594 49.3125C372.156 50.1875 372.625 51.125 373 52.125C373.375 53.0625 373.656 53.875 373.844 54.5625L378.906 77.9062L382.844 88.5938C382.906 88.6562 382.938 88.8438 382.938 89.1562C382.938 89.4062 382.938 89.5938 382.938 89.7188C382.938 90.4688 382.75 91.2188 382.375 91.9688C382.062 92.6562 381.469 93 380.594 93C379.531 93 378.438 92.7188 377.312 92.1562C376.188 91.5312 375.406 90.75 374.969 89.8125Z" fill="white"/>
<path d="M35.0625 101.156C34.125 97.4062 33.4375 93.4375 33 89.25C32.625 85 32.375 81.0312 32.25 77.3438C31.6875 77.6562 31.2188 78.1562 30.8438 78.8438C30.4688 79.4688 30.125 80.1562 29.8125 80.9062C29.5625 81.5938 29.2812 82.3125 28.9688 83.0625C28.6562 83.75 28.2812 84.3438 27.8438 84.8438C26.4062 86.4688 24.8438 87.9688 23.1562 89.3438C21.4688 90.6562 19.4688 91.3125 17.1562 91.3125C15.2812 91.3125 13.4062 90.9062 11.5312 90.0938C9.71875 89.2812 8.0625 88.2188 6.5625 86.9062C5.125 85.5312 3.9375 83.9688 3 82.2188C2.125 80.4688 1.6875 78.625 1.6875 76.6875C1.6875 74 2.125 71.2812 3 68.5312C3.875 65.7188 4.9375 63.125 6.1875 60.75C6.4375 60.3125 6.8125 59.6875 7.3125 58.875C7.875 58 8.4375 57.125 9 56.25C9.625 55.375 10.1875 54.5938 10.6875 53.9062C11.1875 53.1562 11.5312 52.6875 11.7188 52.5L21.9375 41.7188C23.3125 40.2812 25.0312 39.25 27.0938 38.625C29.2188 37.9375 31.1875 37.5312 33 37.4062C33.9375 37.2812 34.7188 37.4375 35.3438 37.875C35.9688 38.25 36.2812 38.9062 36.2812 39.8438C36.2812 40.5938 35.9688 41.1875 35.3438 41.625C34.7812 42 34.0938 42.3125 33.2812 42.5625C32.4688 42.8125 31.625 43.0625 30.75 43.3125C29.875 43.5 29.1875 43.75 28.6875 44.0625C25.375 46.75 22.375 49.7812 19.6875 53.1562C17 56.4688 14.5938 59.9375 12.4688 63.5625C11.7812 65.75 11.0625 67.8438 10.3125 69.8438C9.5625 71.8438 9.1875 74.0312 9.1875 76.4062C9.1875 76.5938 9.1875 77.0312 9.1875 77.7188C9.25 78.3438 9.28125 78.75 9.28125 78.9375C9.90625 80.4375 10.8438 81.8125 12.0938 83.0625C13.4062 84.3125 14.9375 84.9375 16.6875 84.9375C17.5625 84.9375 18.4688 84.6562 19.4062 84.0938C20.3438 83.5312 21.0625 82.8438 21.5625 82.0312C21.8125 81.7188 22.25 81.0938 22.875 80.1562C23.5 79.2188 24.125 78.2188 24.75 77.1562C25.4375 76.0938 26.0625 75.0938 26.625 74.1562C27.25 73.2188 27.6562 72.5625 27.8438 72.1875C28.0312 71.8125 28.2812 71.3438 28.5938 70.7812C28.9688 70.1562 29.2812 69.5625 29.5312 69C29.8438 68.4375 30.0938 67.9375 30.2812 67.5C30.5312 67 30.6562 66.7188 30.6562 66.6562V66.2812C29.7812 66.5312 28.9062 66.75 28.0312 66.9375C27.1562 67.0625 26.25 67.125 25.3125 67.125C24.75 67.125 24.125 67.0938 23.4375 67.0312C22.8125 66.9062 22.1875 66.7188 21.5625 66.4688C21 66.2188 20.5 65.875 20.0625 65.4375C19.6875 65 19.5 64.4062 19.5 63.6562C19.5 63.3438 19.5312 62.9688 19.5938 62.5312C19.6562 62.0938 19.7812 61.75 19.9688 61.5C20.4688 61.0625 21.125 60.75 21.9375 60.5625C22.8125 60.3125 23.7188 60.1562 24.6562 60.0938C25.6562 59.9688 26.625 59.875 27.5625 59.8125C28.5625 59.6875 29.4688 59.4688 30.2812 59.1562C30.9688 58.9062 31.7812 58.5938 32.7188 58.2188C33.6562 57.7812 34.625 57.375 35.625 57C36.6875 56.5625 37.75 56.1875 38.8125 55.875C39.875 55.5625 40.8438 55.3438 41.7188 55.2188C41.9062 55.2188 42.1562 55.2812 42.4688 55.4062C42.8438 55.5312 43.2188 55.6875 43.5938 55.875C43.9688 56.0625 44.2812 56.2812 44.5312 56.5312C44.7812 56.7188 44.9062 56.9062 44.9062 57.0938C44.9062 58.4688 44.5312 59.4375 43.7812 60C43.0312 60.5 42.0625 61.125 40.875 61.875C41.0625 64.375 40.9688 66.875 40.5938 69.375C40.2812 71.875 40.125 74.375 40.125 76.875C40.125 79.875 40.1875 82.9375 40.3125 86.0625C40.4375 89.1875 40.75 92.2188 41.25 95.1562C41.3125 95.2812 41.4062 95.5938 41.5312 96.0938C41.6562 96.6562 41.7812 97.2188 41.9062 97.7812C42.0938 98.3438 42.25 98.875 42.375 99.375C42.5 99.875 42.5625 100.188 42.5625 100.312V100.5C42.5625 101.375 42.2188 102.219 41.5312 103.031C40.9062 103.906 40.1562 104.344 39.2812 104.344C38.3438 104.344 37.4375 104.031 36.5625 103.406C35.75 102.781 35.25 102.031 35.0625 101.156Z" fill="white"/>
</svg>
